# xmcd
#
# Track frame offsets: 
#        150
#        9147
#        22437
#        33272
#        43209
#        52279
#        62600
#        72029
#        85964
#        97396
#        106629
#        117375
#        127167
#        137510
#
# Disc length: 2574 seconds
#
# Revision: 0
# Processed by: cddbd v1.5.2PL0 Copyright (c) Steve Scherf et al.
# Submitted via: ExactAudioCopyFreeDBPlugin 1.0
#
DISCID=c80a0c0e
DTITLE=Arsen Roulette - Dear You
DYEAR=2011
DGENRE=Rockabilly
TTITLE0=All Show No Go
TTITLE1=Rockin' In The Alley
TTITLE2=Reason For Misery
TTITLE3=Feel Like Making Love
TTITLE4=Gotta Have You
TTITLE5=Love Me Never Leave Me
TTITLE6=Honey Hush
TTITLE7=Off My Mind
TTITLE8=Show Me The Way
TTITLE9=Stranger
TTITLE10=Chasing Rainbows
TTITLE11=Spinning Around
TTITLE12=My Lil' Girl
TTITLE13=Oh Mama (out take)
EXTD=
EXTT0=
EXTT1=
EXTT2=
EXTT3=
EXTT4=
EXTT5=
EXTT6=
EXTT7=
EXTT8=
EXTT9=
EXTT10=
EXTT11=
EXTT12=
EXTT13=
PLAYORDER=
